<?xml version="1.0" encoding="UTF-8"?>
<svg id="_图层_1" data-name="图层_1" xmlns="http://www.w3.org/2000/svg" version="1.1" viewBox="0 0 114 114">
  <!-- Generator: Adobe Illustrator 29.0.1, SVG Export Plug-In . SVG Version: 2.1.0 Build 192)  -->
  <defs>
    <style>
      .st0 {
        fill: #1c4077;
      }
    </style>
  </defs>
  <polygon class="st0" points="71.68 73 65.12 73 42.44 47.61 49.01 47.61 71.68 73"/>
  <polygon class="st0" points="42.44 73 49.01 73 71.68 47.61 65.12 47.61 42.44 73"/>
  <rect class="st0" x="29.12" y="47.61" width="4.89" height="25.39"/>
  <rect class="st0" x="29.38" y="42.98" width="4.37" height="3.71"/>
  <g>
    <circle class="st0" cx="31.57" cy="43.18" r="2.18"/>
    <g>
      <polygon class="st0" points="34.73 46.67 48.35 46.68 44.3 42.99 34.73 42.98 34.73 46.67"/>
      <polygon class="st0" points="28.4 42.99 14.78 42.98 18.83 46.67 28.4 46.68 28.4 42.99"/>
    </g>
  </g>
  <rect class="st0" x="79.99" y="47.61" width="4.89" height="25.39" transform="translate(164.87 120.62) rotate(-180)"/>
  <rect class="st0" x="80.25" y="42.98" width="4.37" height="3.71" transform="translate(164.87 89.67) rotate(-180)"/>
  <circle class="st0" cx="82.43" cy="43.18" r="2.18"/>
  <g>
    <polygon class="st0" points="79.27 46.67 65.65 46.68 69.7 42.99 79.27 42.98 79.27 46.67"/>
    <polygon class="st0" points="85.6 42.99 99.22 42.98 95.17 46.67 85.6 46.68 85.6 42.99"/>
  </g>
</svg>