<?xml version="1.0" encoding="UTF-8"?>
<svg id="_图层_1" data-name="图层_1" xmlns="http://www.w3.org/2000/svg" version="1.1" viewBox="0 0 72 72">
  <!-- Generator: Adobe Illustrator 29.0.1, SVG Export Plug-In . SVG Version: 2.1.0 Build 192)  -->
  <defs>
    <style>
      .st0 {
        fill: #1c4077;
      }
    </style>
  </defs>
  <polygon class="st0" points="44.46 45.23 40.68 45.23 27.61 30.59 31.39 30.59 44.46 45.23"/>
  <polygon class="st0" points="27.61 45.23 31.39 45.23 44.46 30.59 40.68 30.59 27.61 45.23"/>
  <rect class="st0" x="19.93" y="30.59" width="2.82" height="14.64"/>
  <rect class="st0" x="20.08" y="27.92" width="2.52" height="2.14"/>
  <g>
    <circle class="st0" cx="21.34" cy="28.03" r="1.26"/>
    <g>
      <polygon class="st0" points="23.16 30.04 31.01 30.05 28.68 27.92 23.16 27.92 23.16 30.04"/>
      <polygon class="st0" points="19.51 27.92 11.66 27.92 14 30.05 19.51 30.05 19.51 27.92"/>
    </g>
  </g>
  <rect class="st0" x="49.25" y="30.59" width="2.82" height="14.64" transform="translate(101.32 75.82) rotate(-180)"/>
  <rect class="st0" x="49.4" y="27.92" width="2.52" height="2.14" transform="translate(101.32 57.98) rotate(-180)"/>
  <circle class="st0" cx="50.66" cy="28.03" r="1.26"/>
  <g>
    <polygon class="st0" points="48.84 30.04 40.99 30.05 43.32 27.92 48.84 27.92 48.84 30.04"/>
    <polygon class="st0" points="52.49 27.92 60.34 27.92 58 30.05 52.49 30.05 52.49 27.92"/>
  </g>
</svg>