<?xml version="1.0" encoding="UTF-8"?>
<svg id="_图层_1" data-name="图层_1" xmlns="http://www.w3.org/2000/svg" version="1.1" viewBox="0 0 96 96">
  <!-- Generator: Adobe Illustrator 29.0.1, SVG Export Plug-In . SVG Version: 2.1.0 Build 192)  -->
  <defs>
    <style>
      .st0 {
        fill: #1c4077;
      }
    </style>
  </defs>
  <polygon class="st0" points="60.3 61.4 54.8 61.4 35.81 40.14 41.31 40.14 60.3 61.4"/>
  <polygon class="st0" points="35.81 61.4 41.31 61.4 60.3 40.14 54.8 40.14 35.81 61.4"/>
  <rect class="st0" x="24.65" y="40.14" width="4.1" height="21.27"/>
  <rect class="st0" x="24.87" y="36.26" width="3.66" height="3.11"/>
  <g>
    <circle class="st0" cx="26.7" cy="36.42" r="1.83"/>
    <g>
      <polygon class="st0" points="29.35 39.35 40.75 39.35 37.36 36.26 29.35 36.26 29.35 39.35"/>
      <polygon class="st0" points="24.05 36.26 12.64 36.26 16.03 39.35 24.05 39.35 24.05 36.26"/>
    </g>
  </g>
  <rect class="st0" x="67.25" y="40.14" width="4.1" height="21.27" transform="translate(138.6 101.54) rotate(-180)"/>
  <rect class="st0" x="67.47" y="36.26" width="3.66" height="3.11" transform="translate(138.6 75.62) rotate(-180)"/>
  <circle class="st0" cx="69.3" cy="36.42" r="1.83"/>
  <g>
    <polygon class="st0" points="66.65 39.35 55.25 39.35 58.64 36.26 66.65 36.26 66.65 39.35"/>
    <polygon class="st0" points="71.95 36.26 83.36 36.26 79.97 39.35 71.95 39.35 71.95 36.26"/>
  </g>
</svg>